<svg width="354" height="70" viewBox="0 0 354 70" fill="none" xmlns="http://www.w3.org/2000/svg">
<path d="M32.9603 48.6983C32.7 48.7862 32.4379 48.8715 32.1741 48.95C32.4388 48.8707 32.7 48.7853 32.9603 48.6983Z" fill="#F9EDE0"/>
<path d="M34.2664 48.219C33.9853 48.331 33.7043 48.4414 33.4181 48.5431C33.7043 48.4405 33.9862 48.331 34.2664 48.219Z" fill="#F9EDE0"/>
<path d="M25 50C38.8071 50 50 38.8071 50 25C50 11.1929 38.8071 0 25 0C11.1929 0 0 11.1929 0 25C0 38.8071 11.1929 50 25 50Z" fill="#EFECE8"/>
<path d="M31.6698 49.0931C31.4147 49.1638 31.1578 49.231 30.8983 49.294C31.1578 49.231 31.4147 49.1638 31.6698 49.0931Z" fill="#F9EDE0"/>
<path d="M23.1888 49.9276C22.8836 49.906 22.5793 49.8827 22.2785 49.85C22.5802 49.8827 22.8845 49.906 23.1888 49.9276Z" fill="#F9EDE0"/>
<path d="M19.1009 49.2931C18.8422 49.2302 18.5853 49.1629 18.3293 49.0922C18.5853 49.1638 18.8422 49.231 19.1009 49.2931Z" fill="#F9EDE0"/>
<path d="M21.7612 49.7845C21.4879 49.7491 21.2155 49.7121 20.9448 49.6681C21.2147 49.7121 21.4879 49.7483 21.7612 49.7845Z" fill="#F9EDE0"/>
<path d="M25 50C24.5397 50 24.0836 49.9853 23.6293 49.9612C24.0836 49.9853 24.5397 50 25 50Z" fill="#F9EDE0"/>
<path d="M20.4112 49.5724C20.1491 49.5241 19.8879 49.4724 19.6293 49.4155C19.8879 49.4724 20.1491 49.5241 20.4112 49.5724Z" fill="#F9EDE0"/>
<path d="M15.3679 48.0744C14.9791 47.9115 14.5946 47.7408 14.2162 47.5598C14.5955 47.7408 14.98 47.9124 15.3679 48.0744Z" fill="#F9EDE0"/>
<path d="M16.581 48.5431C16.2957 48.4405 16.0138 48.331 15.7328 48.219C16.0138 48.331 16.2957 48.4405 16.581 48.5431Z" fill="#F9EDE0"/>
<path d="M26.3707 49.9612C25.9164 49.9853 25.4603 50 25 50C25.4603 50 25.9164 49.9853 26.3707 49.9612Z" fill="#F9EDE0"/>
<path d="M27.7216 49.85C27.4198 49.8827 27.1155 49.906 26.8112 49.9276C27.1155 49.906 27.4198 49.8827 27.7216 49.85Z" fill="#F9EDE0"/>
<path d="M30.3716 49.4155C30.1121 49.4724 29.8517 49.5241 29.5897 49.5724C29.8509 49.5241 30.1121 49.4724 30.3716 49.4155Z" fill="#F9EDE0"/>
<path d="M29.056 49.6672C28.7853 49.7112 28.5129 49.7483 28.2397 49.7836C28.5121 49.7483 28.7853 49.7121 29.056 49.6672Z" fill="#F9EDE0"/>
<path d="M35.7793 47.5612C35.4026 47.7414 35.0198 47.9121 34.6328 48.0741C35.0198 47.9121 35.4026 47.7422 35.7793 47.5612Z" fill="#F9EDE0"/>
<path d="M17.8259 48.95C17.5612 48.8707 17.3 48.7853 17.0397 48.6983C17.3 48.7853 17.5612 48.8707 17.8259 48.95Z" fill="#F9EDE0"/>
<path d="M34.6328 48.0741C34.5121 48.125 34.3888 48.1698 34.2672 48.2181C34.3879 48.1698 34.5112 48.125 34.6328 48.0741Z" fill="#F9EDE0"/>
<path d="M35.8146 47.5457C35.8031 47.551 35.7908 47.5563 35.7793 47.5616C35.7908 47.5563 35.8031 47.5519 35.8146 47.5457Z" fill="#F9EDE0"/>
<path d="M19.6284 49.4155C19.4517 49.3767 19.2759 49.3362 19.1009 49.2939C19.2759 49.3362 19.4517 49.3767 19.6284 49.4155Z" fill="#F9EDE0"/>
<path d="M20.944 49.6672C20.7655 49.6379 20.5879 49.6052 20.4104 49.5724C20.5888 49.6052 20.7655 49.6388 20.944 49.6672Z" fill="#F9EDE0"/>
<path d="M23.6293 49.9612C23.4819 49.9534 23.3353 49.9379 23.1888 49.9276C23.3362 49.9379 23.4819 49.9534 23.6293 49.9612Z" fill="#F9EDE0"/>
<path d="M22.2785 49.85C22.1052 49.831 21.9336 49.8069 21.7612 49.7845C21.9336 49.8069 22.1052 49.831 22.2785 49.85Z" fill="#F9EDE0"/>
<path d="M14.217 47.5606C14.2074 47.5562 14.1968 47.5518 14.1871 47.5474C14.1968 47.5518 14.2074 47.5562 14.217 47.5606Z" fill="#F9EDE0"/>
<path d="M26.8112 49.9276C26.6638 49.9379 26.5181 49.9534 26.3707 49.9612C26.5181 49.9534 26.6638 49.9379 26.8112 49.9276Z" fill="#F9EDE0"/>
<path d="M32.1741 48.95C32.0069 49 31.8388 49.0465 31.6698 49.0931C31.8388 49.0465 32.0069 49 32.1741 48.95Z" fill="#F9EDE0"/>
<path d="M33.419 48.5431C33.2672 48.5974 33.1138 48.6465 32.9612 48.6983C33.1138 48.6465 33.2672 48.5974 33.419 48.5431Z" fill="#F9EDE0"/>
<path d="M15.7336 48.2189C15.6121 48.1707 15.4888 48.125 15.3681 48.075C15.4888 48.125 15.6121 48.1698 15.7336 48.2189Z" fill="#F9EDE0"/>
<path d="M17.0397 48.6983C16.8871 48.6465 16.7328 48.5974 16.5819 48.5431C16.7328 48.5974 16.8862 48.6465 17.0397 48.6983Z" fill="#F9EDE0"/>
<path d="M28.2388 49.7845C28.0664 49.8069 27.8948 49.8319 27.7216 49.85C27.8948 49.831 28.0664 49.8069 28.2388 49.7845Z" fill="#F9EDE0"/>
<path d="M30.8991 49.2931C30.7241 49.3353 30.5483 49.3758 30.3716 49.4146C30.5483 49.3767 30.7241 49.3362 30.8991 49.2931Z" fill="#F9EDE0"/>
<path d="M29.5888 49.5724C29.4112 49.6052 29.2345 49.6388 29.0552 49.6672C29.2345 49.6388 29.4112 49.6052 29.5888 49.5724Z" fill="#F9EDE0"/>
<path d="M18.3302 49.0931C18.1621 49.0465 17.9931 49 17.8259 48.95C17.9931 49 18.1612 49.0465 18.3302 49.0931Z" fill="#F9EDE0"/>
<path d="M30.7224 26.7189C33.5078 24.8646 35.3448 21.7 35.3448 18.1034C35.3448 12.3905 30.7129 7.75861 25 7.75861C19.2871 7.75861 14.6552 12.3905 14.6552 18.1034C14.6552 21.7 16.4922 24.8646 19.2776 26.7189C19.2776 26.7189 19.2785 26.7198 19.2793 26.7198C19.2785 26.7198 19.2785 26.7189 19.2785 26.7189C12.6112 28.7284 7.41983 34.1396 5.74828 40.9474L5.74914 40.9482C6.02155 41.2767 6.30431 41.5974 6.5931 41.912C6.66293 41.9888 6.73621 42.062 6.80776 42.137C7.03017 42.3733 7.25517 42.606 7.48621 42.8336C7.5819 42.9276 7.67931 43.0181 7.77672 43.1103C7.99052 43.3138 8.2069 43.5146 8.42759 43.7103C8.53707 43.8069 8.64828 43.9026 8.75862 43.9974C8.975 44.1827 9.19397 44.3646 9.41724 44.5422C9.53448 44.6362 9.65259 44.7284 9.77069 44.8207C9.99655 44.9948 10.2259 45.1638 10.4578 45.3293C10.5776 45.4146 10.6957 45.5017 10.8172 45.5853C11.0621 45.7543 11.3112 45.9164 11.5621 46.0767C11.675 46.1483 11.7853 46.2224 11.8991 46.2931C12.1888 46.4715 12.4836 46.6422 12.781 46.8095C12.8595 46.8534 12.9362 46.9008 13.0155 46.9439C13.4 47.1543 13.7905 47.356 14.1871 47.5465C14.1966 47.5508 14.2069 47.5551 14.2164 47.5595C14.5948 47.7405 14.9793 47.912 15.3681 48.0741C15.4888 48.125 15.6121 48.1698 15.7336 48.2181C16.0147 48.3301 16.2957 48.4405 16.5819 48.5422C16.7336 48.5965 16.8871 48.6457 17.0397 48.6974C17.3 48.7853 17.5621 48.8707 17.8259 48.9491C17.9931 48.9991 18.1612 49.0457 18.3302 49.0922C18.5853 49.1629 18.8422 49.2301 19.1017 49.2931C19.2767 49.3353 19.4526 49.3758 19.6293 49.4146C19.8888 49.4715 20.1491 49.5232 20.4112 49.5715C20.5888 49.6043 20.7655 49.6379 20.9448 49.6664C21.2155 49.7103 21.4879 49.7474 21.7612 49.7827C21.9336 49.8051 22.1052 49.8301 22.2785 49.8483C22.5802 49.881 22.8845 49.9043 23.1888 49.9258C23.3362 49.9362 23.4819 49.9517 23.6293 49.9595C24.0836 49.9853 24.5397 50 25 50C25.4604 50 25.9164 49.9853 26.3707 49.9612C26.5181 49.9534 26.6647 49.9379 26.8112 49.9276C27.1164 49.906 27.4207 49.8827 27.7216 49.85C27.8948 49.831 28.0664 49.8069 28.2388 49.7845C28.5121 49.7491 28.7845 49.712 29.0552 49.6681C29.2336 49.6388 29.4112 49.606 29.5888 49.5732C29.8509 49.525 30.1121 49.4733 30.3707 49.4164C30.5474 49.3776 30.7233 49.337 30.8983 49.2948C31.1569 49.2319 31.4138 49.1646 31.6698 49.0939C31.8379 49.0474 32.0069 49.0008 32.1741 48.9508C32.4388 48.8715 32.7 48.7862 32.9604 48.6991C33.1129 48.6474 33.2672 48.5983 33.4181 48.5439C33.7035 48.4414 33.9854 48.3319 34.2664 48.2198C34.3879 48.1715 34.5112 48.1258 34.6319 48.0758C35.019 47.9138 35.4017 47.7439 35.7785 47.5629C35.7897 47.5577 35.8017 47.5526 35.8129 47.5474C36.2095 47.3569 36.6 47.1551 36.9845 46.9448C37.0638 46.9017 37.1405 46.8543 37.219 46.8103C37.5164 46.6431 37.8112 46.4724 38.1009 46.2939C38.2147 46.2241 38.3259 46.15 38.4379 46.0776C38.6888 45.9172 38.9379 45.7543 39.1828 45.5862C39.3035 45.5026 39.4224 45.4164 39.5422 45.3301C39.7741 45.1638 40.0035 44.9948 40.2293 44.8215C40.3483 44.7301 40.4655 44.637 40.5828 44.5431C40.8052 44.3655 41.025 44.1836 41.2414 43.9982C41.3526 43.9034 41.4638 43.8077 41.5724 43.7112C41.7931 43.5155 42.0095 43.3146 42.2233 43.1112C42.3198 43.0189 42.4181 42.9276 42.5138 42.8345C42.7448 42.6069 42.9707 42.3741 43.1922 42.1379C43.2629 42.062 43.3362 41.9888 43.4069 41.9129C43.6957 41.5983 43.9785 41.2776 44.2509 40.9491L44.2517 40.9482C42.581 34.1396 37.3897 28.7284 30.7224 26.7189Z" fill="#C6C3BD"/>
<path d="M66.787 10.913V20H65.877V15.749H60.95V20H60.04V10.913H60.95V14.995H65.877V10.913H66.787ZM75.2852 16.087C75.2852 16.399 75.2766 16.6373 75.2592 16.802H69.3702C69.3962 17.3393 69.5262 17.7987 69.7602 18.18C69.9942 18.5613 70.3019 18.8517 70.6832 19.051C71.0646 19.2417 71.4806 19.337 71.9312 19.337C72.5206 19.337 73.0146 19.194 73.4132 18.908C73.8206 18.622 74.0892 18.2363 74.2192 17.751H75.1812C75.0079 18.4443 74.6352 19.012 74.0632 19.454C73.4999 19.8873 72.7892 20.104 71.9312 20.104C71.2639 20.104 70.6659 19.9567 70.1372 19.662C69.6086 19.3587 69.1926 18.934 68.8892 18.388C68.5946 17.8333 68.4472 17.1877 68.4472 16.451C68.4472 15.7143 68.5946 15.0687 68.8892 14.514C69.1839 13.9593 69.5956 13.5347 70.1242 13.24C70.6529 12.9453 71.2552 12.798 71.9312 12.798C72.6072 12.798 73.1966 12.9453 73.6992 13.24C74.2106 13.5347 74.6006 13.9333 74.8692 14.436C75.1466 14.93 75.2852 15.4803 75.2852 16.087ZM74.3622 16.061C74.3709 15.5323 74.2626 15.0817 74.0372 14.709C73.8206 14.3363 73.5216 14.0547 73.1402 13.864C72.7589 13.6733 72.3429 13.578 71.8922 13.578C71.2162 13.578 70.6399 13.7947 70.1632 14.228C69.6866 14.6613 69.4222 15.2723 69.3702 16.061H74.3622ZM77.8602 10.38V20H76.9502V10.38H77.8602ZM80.8309 10.38V20H79.9209V10.38H80.8309ZM85.9986 20.104C85.3312 20.104 84.7289 19.9567 84.1916 19.662C83.6629 19.3587 83.2426 18.934 82.9306 18.388C82.6272 17.8333 82.4756 17.1877 82.4756 16.451C82.4756 15.7143 82.6316 15.073 82.9436 14.527C83.2556 13.9723 83.6802 13.5477 84.2176 13.253C84.7549 12.9497 85.3572 12.798 86.0246 12.798C86.6919 12.798 87.2942 12.9497 87.8316 13.253C88.3776 13.5477 88.8022 13.9723 89.1056 14.527C89.4176 15.073 89.5736 15.7143 89.5736 16.451C89.5736 17.179 89.4176 17.8203 89.1056 18.375C88.7936 18.9297 88.3646 19.3587 87.8186 19.662C87.2726 19.9567 86.6659 20.104 85.9986 20.104ZM85.9986 19.311C86.4666 19.311 86.8999 19.207 87.2986 18.999C87.6972 18.7823 88.0179 18.4617 88.2606 18.037C88.5119 17.6037 88.6376 17.075 88.6376 16.451C88.6376 15.827 88.5162 15.3027 88.2736 14.878C88.0309 14.4447 87.7102 14.124 87.3116 13.916C86.9129 13.6993 86.4796 13.591 86.0116 13.591C85.5436 13.591 85.1102 13.6993 84.7116 13.916C84.3129 14.124 83.9922 14.4447 83.7496 14.878C83.5156 15.3027 83.3986 15.827 83.3986 16.451C83.3986 17.075 83.5156 17.6037 83.7496 18.037C83.9922 18.4617 84.3086 18.7823 84.6986 18.999C85.0972 19.207 85.5306 19.311 85.9986 19.311ZM99.0508 15.307C99.5621 15.4023 99.9954 15.6623 100.351 16.087C100.706 16.5117 100.884 17.0057 100.884 17.569C100.884 18.0283 100.767 18.4443 100.533 18.817C100.307 19.181 99.9738 19.4713 99.5318 19.688C99.0898 19.896 98.5611 20 97.9458 20H94.7998V10.913H97.8548C98.7734 10.913 99.4711 11.1253 99.9478 11.55C100.433 11.9747 100.676 12.525 100.676 13.201C100.676 13.7643 100.524 14.2237 100.221 14.579C99.9174 14.9257 99.5274 15.1683 99.0508 15.307ZM95.7098 14.93H97.8288C98.4441 14.93 98.9164 14.787 99.2458 14.501C99.5838 14.2063 99.7528 13.8033 99.7528 13.292C99.7528 12.7893 99.5838 12.395 99.2458 12.109C98.9164 11.823 98.4311 11.68 97.7898 11.68H95.7098V14.93ZM97.8808 19.233C98.5394 19.233 99.0508 19.077 99.4148 18.765C99.7874 18.453 99.9738 18.024 99.9738 17.478C99.9738 16.932 99.7788 16.4987 99.3888 16.178C99.0074 15.8487 98.4918 15.684 97.8418 15.684H95.7098V19.233H97.8808ZM103.467 14.163C103.666 13.721 103.969 13.3787 104.377 13.136C104.793 12.8933 105.3 12.772 105.898 12.772V13.721H105.651C104.992 13.721 104.463 13.8987 104.065 14.254C103.666 14.6093 103.467 15.203 103.467 16.035V20H102.557V12.902H103.467V14.163ZM110.374 20.104C109.706 20.104 109.104 19.9567 108.567 19.662C108.038 19.3587 107.618 18.934 107.306 18.388C107.002 17.8333 106.851 17.1877 106.851 16.451C106.851 15.7143 107.007 15.073 107.319 14.527C107.631 13.9723 108.055 13.5477 108.593 13.253C109.13 12.9497 109.732 12.798 110.4 12.798C111.067 12.798 111.669 12.9497 112.207 13.253C112.753 13.5477 113.177 13.9723 113.481 14.527C113.793 15.073 113.949 15.7143 113.949 16.451C113.949 17.179 113.793 17.8203 113.481 18.375C113.169 18.9297 112.74 19.3587 112.194 19.662C111.648 19.9567 111.041 20.104 110.374 20.104ZM110.374 19.311C110.842 19.311 111.275 19.207 111.674 18.999C112.072 18.7823 112.393 18.4617 112.636 18.037C112.887 17.6037 113.013 17.075 113.013 16.451C113.013 15.827 112.891 15.3027 112.649 14.878C112.406 14.4447 112.085 14.124 111.687 13.916C111.288 13.6993 110.855 13.591 110.387 13.591C109.919 13.591 109.485 13.6993 109.087 13.916C108.688 14.124 108.367 14.4447 108.125 14.878C107.891 15.3027 107.774 15.827 107.774 16.451C107.774 17.075 107.891 17.6037 108.125 18.037C108.367 18.4617 108.684 18.7823 109.074 18.999C109.472 19.207 109.906 19.311 110.374 19.311ZM116.439 18.492L115.087 21.898H114.463L115.425 18.492H116.439ZM59.364 36.36C59.364 35.6147 59.5027 34.9603 59.78 34.397C60.066 33.8337 60.4517 33.4003 60.937 33.097C61.4223 32.7937 61.964 32.642 62.562 32.642C63.0733 32.642 63.5197 32.746 63.901 32.954C64.291 33.162 64.59 33.435 64.798 33.773V32.746H67.021V40H64.798V38.973C64.5813 39.311 64.278 39.584 63.888 39.792C63.5067 40 63.0603 40.104 62.549 40.104C61.9597 40.104 61.4223 39.9523 60.937 39.649C60.4517 39.337 60.066 38.8993 59.78 38.336C59.5027 37.764 59.364 37.1053 59.364 36.36ZM64.798 36.373C64.798 35.8183 64.642 35.3807 64.33 35.06C64.0267 34.7393 63.654 34.579 63.212 34.579C62.77 34.579 62.393 34.7393 62.081 35.06C61.7777 35.372 61.626 35.8053 61.626 36.36C61.626 36.9147 61.7777 37.3567 62.081 37.686C62.393 38.0067 62.77 38.167 63.212 38.167C63.654 38.167 64.0267 38.0067 64.33 37.686C64.642 37.3653 64.798 36.9277 64.798 36.373ZM72.2692 34.592H71.0732V40H68.8502V34.592H68.0442V32.746H68.8502V32.538C68.8502 31.6453 69.1059 30.9693 69.6172 30.51C70.1286 30.042 70.8782 29.808 71.8662 29.808C72.0309 29.808 72.1522 29.8123 72.2302 29.821V31.706C71.8056 31.68 71.5066 31.7407 71.3332 31.888C71.1599 32.0353 71.0732 32.2997 71.0732 32.681V32.746H72.2692V34.592ZM74.4318 31.992C74.0418 31.992 73.7211 31.8793 73.4698 31.654C73.2271 31.42 73.1058 31.134 73.1058 30.796C73.1058 30.4493 73.2271 30.1633 73.4698 29.938C73.7211 29.704 74.0418 29.587 74.4318 29.587C74.8131 29.587 75.1251 29.704 75.3678 29.938C75.6191 30.1633 75.7448 30.4493 75.7448 30.796C75.7448 31.134 75.6191 31.42 75.3678 31.654C75.1251 31.8793 74.8131 31.992 74.4318 31.992ZM75.5368 32.746V40H73.3138V32.746H75.5368ZM80.7878 34.592H79.5918V40H77.3688V34.592H76.5628V32.746H77.3688V32.538C77.3688 31.6453 77.6245 30.9693 78.1358 30.51C78.6471 30.042 79.3968 29.808 80.3848 29.808C80.5495 29.808 80.6708 29.8123 80.7488 29.821V31.706C80.3241 31.68 80.0251 31.7407 79.8518 31.888C79.6785 32.0353 79.5918 32.2997 79.5918 32.681V32.746H80.7878V34.592ZM84.0554 33.773C84.2634 33.435 84.5624 33.162 84.9524 32.954C85.3424 32.746 85.7887 32.642 86.2914 32.642C86.8894 32.642 87.431 32.7937 87.9164 33.097C88.4017 33.4003 88.783 33.8337 89.0604 34.397C89.3464 34.9603 89.4894 35.6147 89.4894 36.36C89.4894 37.1053 89.3464 37.764 89.0604 38.336C88.783 38.8993 88.4017 39.337 87.9164 39.649C87.431 39.9523 86.8894 40.104 86.2914 40.104C85.78 40.104 85.3337 40.0043 84.9524 39.805C84.571 39.597 84.272 39.324 84.0554 38.986V40H81.8324V30.38H84.0554V33.773ZM87.2274 36.36C87.2274 35.8053 87.0714 35.372 86.7594 35.06C86.456 34.7393 86.079 34.579 85.6284 34.579C85.1864 34.579 84.8094 34.7393 84.4974 35.06C84.194 35.3807 84.0424 35.8183 84.0424 36.373C84.0424 36.9277 84.194 37.3653 84.4974 37.686C84.8094 38.0067 85.1864 38.167 85.6284 38.167C86.0704 38.167 86.4474 38.0067 86.7594 37.686C87.0714 37.3567 87.2274 36.9147 87.2274 36.36ZM90.2136 36.36C90.2136 35.6147 90.3523 34.9603 90.6296 34.397C90.9156 33.8337 91.3013 33.4003 91.7866 33.097C92.2719 32.7937 92.8136 32.642 93.4116 32.642C93.9229 32.642 94.3693 32.746 94.7506 32.954C95.1406 33.162 95.4396 33.435 95.6476 33.773V32.746H97.8706V40H95.6476V38.973C95.4309 39.311 95.1276 39.584 94.7376 39.792C94.3563 40 93.9099 40.104 93.3986 40.104C92.8093 40.104 92.2719 39.9523 91.7866 39.649C91.3013 39.337 90.9156 38.8993 90.6296 38.336C90.3523 37.764 90.2136 37.1053 90.2136 36.36ZM95.6476 36.373C95.6476 35.8183 95.4916 35.3807 95.1796 35.06C94.8763 34.7393 94.5036 34.579 94.0616 34.579C93.6196 34.579 93.2426 34.7393 92.9306 35.06C92.6273 35.372 92.4756 35.8053 92.4756 36.36C92.4756 36.9147 92.6273 37.3567 92.9306 37.686C93.2426 38.0067 93.6196 38.167 94.0616 38.167C94.5036 38.167 94.8763 38.0067 95.1796 37.686C95.4916 37.3653 95.6476 36.9277 95.6476 36.373ZM102.43 40.104C101.797 40.104 101.234 39.9957 100.74 39.779C100.246 39.5623 99.8559 39.2677 99.5699 38.895C99.2839 38.5137 99.1235 38.089 99.0889 37.621H101.286C101.312 37.8723 101.429 38.076 101.637 38.232C101.845 38.388 102.101 38.466 102.404 38.466C102.681 38.466 102.894 38.414 103.041 38.31C103.197 38.1973 103.275 38.0543 103.275 37.881C103.275 37.673 103.167 37.5213 102.95 37.426C102.733 37.322 102.382 37.2093 101.897 37.088C101.377 36.9667 100.944 36.841 100.597 36.711C100.25 36.5723 99.9512 36.36 99.6999 36.074C99.4485 35.7793 99.3229 35.385 99.3229 34.891C99.3229 34.475 99.4355 34.098 99.6609 33.76C99.8949 33.4133 100.233 33.1403 100.675 32.941C101.126 32.7417 101.659 32.642 102.274 32.642C103.184 32.642 103.899 32.8673 104.419 33.318C104.948 33.7687 105.251 34.3667 105.329 35.112H103.275C103.24 34.8607 103.128 34.6613 102.937 34.514C102.755 34.3667 102.512 34.293 102.209 34.293C101.949 34.293 101.75 34.345 101.611 34.449C101.472 34.5443 101.403 34.6787 101.403 34.852C101.403 35.06 101.511 35.216 101.728 35.32C101.953 35.424 102.3 35.528 102.768 35.632C103.305 35.7707 103.743 35.9093 104.081 36.048C104.419 36.178 104.714 36.3947 104.965 36.698C105.225 36.9927 105.359 37.3913 105.368 37.894C105.368 38.3187 105.247 38.7 105.004 39.038C104.77 39.3673 104.428 39.6273 103.977 39.818C103.535 40.0087 103.019 40.104 102.43 40.104ZM114.138 32.746L109.588 43.445H107.196L108.86 39.753L105.909 32.746H108.392L110.069 37.283L111.733 32.746H114.138ZM114.5 36.36C114.5 35.6147 114.638 34.9603 114.916 34.397C115.202 33.8337 115.587 33.4003 116.073 33.097C116.558 32.7937 117.1 32.642 117.698 32.642C118.209 32.642 118.655 32.746 119.037 32.954C119.427 33.162 119.726 33.435 119.934 33.773V32.746H122.157V40H119.934V38.973C119.717 39.311 119.414 39.584 119.024 39.792C118.642 40 118.196 40.104 117.685 40.104C117.095 40.104 116.558 39.9523 116.073 39.649C115.587 39.337 115.202 38.8993 114.916 38.336C114.638 37.764 114.5 37.1053 114.5 36.36ZM119.934 36.373C119.934 35.8183 119.778 35.3807 119.466 35.06C119.162 34.7393 118.79 34.579 118.348 34.579C117.906 34.579 117.529 34.7393 117.217 35.06C116.913 35.372 116.762 35.8053 116.762 36.36C116.762 36.9147 116.913 37.3567 117.217 37.686C117.529 38.0067 117.906 38.167 118.348 38.167C118.79 38.167 119.162 38.0067 119.466 37.686C119.778 37.3653 119.934 36.9277 119.934 36.373Z" fill="black"/>
<path d="M233.542 13.719V11.97H236.589V20H234.631V13.719H233.542ZM239.9 17.646C240.01 18.2253 240.347 18.515 240.912 18.515C241.301 18.515 241.576 18.3427 241.737 17.998C241.898 17.6533 241.979 17.0923 241.979 16.315C241.818 16.5423 241.598 16.7183 241.319 16.843C241.04 16.9677 240.729 17.03 240.384 17.03C239.915 17.03 239.497 16.9347 239.13 16.744C238.763 16.546 238.474 16.2563 238.261 15.875C238.056 15.4863 237.953 15.017 237.953 14.467C237.953 13.9243 238.063 13.4513 238.283 13.048C238.51 12.6447 238.829 12.333 239.24 12.113C239.658 11.893 240.149 11.783 240.714 11.783C241.799 11.783 242.558 12.1203 242.991 12.795C243.424 13.4697 243.64 14.4633 243.64 15.776C243.64 16.7293 243.552 17.5177 243.376 18.141C243.207 18.757 242.918 19.2263 242.507 19.549C242.104 19.8717 241.55 20.033 240.846 20.033C240.289 20.033 239.812 19.923 239.416 19.703C239.027 19.483 238.727 19.1933 238.514 18.834C238.309 18.4747 238.191 18.0787 238.162 17.646H239.9ZM240.813 15.545C241.121 15.545 241.367 15.4533 241.55 15.27C241.733 15.0793 241.825 14.8227 241.825 14.5C241.825 14.148 241.73 13.8767 241.539 13.686C241.348 13.4953 241.092 13.4 240.769 13.4C240.446 13.4 240.19 13.499 239.999 13.697C239.816 13.8877 239.724 14.1517 239.724 14.489C239.724 14.8043 239.816 15.061 239.999 15.259C240.19 15.4497 240.461 15.545 240.813 15.545ZM245.71 20.088C245.38 20.088 245.109 19.9927 244.896 19.802C244.691 19.604 244.588 19.362 244.588 19.076C244.588 18.7827 244.691 18.537 244.896 18.339C245.109 18.141 245.38 18.042 245.71 18.042C246.033 18.042 246.297 18.141 246.502 18.339C246.715 18.537 246.821 18.7827 246.821 19.076C246.821 19.362 246.715 19.604 246.502 19.802C246.297 19.9927 246.033 20.088 245.71 20.088ZM247.748 15.875C247.748 14.6137 247.99 13.62 248.474 12.894C248.965 12.168 249.754 11.805 250.839 11.805C251.924 11.805 252.709 12.168 253.193 12.894C253.684 13.62 253.93 14.6137 253.93 15.875C253.93 17.151 253.684 18.152 253.193 18.878C252.709 19.604 251.924 19.967 250.839 19.967C249.754 19.967 248.965 19.604 248.474 18.878C247.99 18.152 247.748 17.151 247.748 15.875ZM252.082 15.875C252.082 15.1343 252.001 14.566 251.84 14.17C251.679 13.7667 251.345 13.565 250.839 13.565C250.333 13.565 249.999 13.7667 249.838 14.17C249.677 14.566 249.596 15.1343 249.596 15.875C249.596 16.3737 249.625 16.788 249.684 17.118C249.743 17.4407 249.86 17.7047 250.036 17.91C250.219 18.108 250.487 18.207 250.839 18.207C251.191 18.207 251.455 18.108 251.631 17.91C251.814 17.7047 251.935 17.4407 251.994 17.118C252.053 16.788 252.082 16.3737 252.082 15.875ZM254.924 15.875C254.924 14.6137 255.166 13.62 255.65 12.894C256.141 12.168 256.929 11.805 258.015 11.805C259.1 11.805 259.885 12.168 260.369 12.894C260.86 13.62 261.106 14.6137 261.106 15.875C261.106 17.151 260.86 18.152 260.369 18.878C259.885 19.604 259.1 19.967 258.015 19.967C256.929 19.967 256.141 19.604 255.65 18.878C255.166 18.152 254.924 17.151 254.924 15.875ZM259.258 15.875C259.258 15.1343 259.177 14.566 259.016 14.17C258.854 13.7667 258.521 13.565 258.015 13.565C257.509 13.565 257.175 13.7667 257.014 14.17C256.852 14.566 256.772 15.1343 256.772 15.875C256.772 16.3737 256.801 16.788 256.86 17.118C256.918 17.4407 257.036 17.7047 257.212 17.91C257.395 18.108 257.663 18.207 258.015 18.207C258.367 18.207 258.631 18.108 258.807 17.91C258.99 17.7047 259.111 17.4407 259.17 17.118C259.228 16.788 259.258 16.3737 259.258 15.875ZM275.244 12.278L273.231 20H270.954L269.722 14.918L268.446 20H266.169L264.211 12.278H266.224L267.335 17.899L268.71 12.278H270.778L272.098 17.899L273.22 12.278H275.244ZM278.068 12.278V20H276.187V12.278H278.068ZM284.106 16.04C284.553 16.1353 284.913 16.359 285.184 16.711C285.455 17.0557 285.591 17.4517 285.591 17.899C285.591 18.5443 285.364 19.0577 284.909 19.439C284.462 19.813 283.835 20 283.028 20H279.431V12.278H282.907C283.692 12.278 284.304 12.4577 284.744 12.817C285.191 13.1763 285.415 13.664 285.415 14.28C285.415 14.7347 285.294 15.1123 285.052 15.413C284.817 15.7137 284.502 15.9227 284.106 16.04ZM281.312 15.402H282.544C282.852 15.402 283.087 15.336 283.248 15.204C283.417 15.0647 283.501 14.863 283.501 14.599C283.501 14.335 283.417 14.1333 283.248 13.994C283.087 13.8547 282.852 13.785 282.544 13.785H281.312V15.402ZM282.698 18.482C283.013 18.482 283.255 18.4123 283.424 18.273C283.6 18.1263 283.688 17.9173 283.688 17.646C283.688 17.3747 283.596 17.162 283.413 17.008C283.237 16.854 282.991 16.777 282.676 16.777H281.312V18.482H282.698ZM191.082 37.077C190.576 37.077 190.129 36.989 189.74 36.813C189.359 36.637 189.058 36.3913 188.838 36.076C188.618 35.7607 188.501 35.4087 188.486 35.02H189.3C189.337 35.394 189.502 35.724 189.795 36.01C190.088 36.2887 190.517 36.428 191.082 36.428C191.603 36.428 192.013 36.296 192.314 36.032C192.622 35.7607 192.776 35.4197 192.776 35.009C192.776 34.679 192.692 34.415 192.523 34.217C192.354 34.0117 192.145 33.8613 191.896 33.766C191.647 33.6633 191.302 33.5533 190.862 33.436C190.349 33.2967 189.942 33.161 189.641 33.029C189.34 32.897 189.084 32.6917 188.871 32.413C188.658 32.1343 188.552 31.7567 188.552 31.28C188.552 30.884 188.655 30.532 188.86 30.224C189.065 29.9087 189.355 29.663 189.729 29.487C190.103 29.311 190.532 29.223 191.016 29.223C191.727 29.223 192.299 29.399 192.732 29.751C193.172 30.0957 193.425 30.543 193.491 31.093H192.655C192.604 30.7777 192.431 30.499 192.138 30.257C191.845 30.0077 191.449 29.883 190.95 29.883C190.488 29.883 190.103 30.0077 189.795 30.257C189.487 30.499 189.333 30.8327 189.333 31.258C189.333 31.5807 189.417 31.841 189.586 32.039C189.755 32.237 189.964 32.3873 190.213 32.49C190.47 32.5927 190.814 32.7027 191.247 32.82C191.746 32.9593 192.149 33.0987 192.457 33.238C192.765 33.37 193.025 33.5753 193.238 33.854C193.451 34.1327 193.557 34.5067 193.557 34.976C193.557 35.3353 193.462 35.6763 193.271 35.999C193.08 36.3217 192.798 36.582 192.424 36.78C192.05 36.978 191.603 37.077 191.082 37.077ZM194.693 33.986C194.693 33.37 194.814 32.831 195.056 32.369C195.305 31.8997 195.646 31.5403 196.079 31.291C196.519 31.0343 197.014 30.906 197.564 30.906C198.136 30.906 198.627 31.038 199.038 31.302C199.456 31.566 199.757 31.9033 199.94 32.314V30.994H200.71V37H199.94V35.669C199.749 36.0797 199.445 36.4207 199.027 36.692C198.616 36.956 198.125 37.088 197.553 37.088C197.01 37.088 196.519 36.9597 196.079 36.703C195.646 36.4463 195.305 36.0833 195.056 35.614C194.814 35.1447 194.693 34.602 194.693 33.986ZM199.94 33.997C199.94 33.513 199.841 33.0877 199.643 32.721C199.445 32.3543 199.174 32.072 198.829 31.874C198.492 31.676 198.118 31.577 197.707 31.577C197.282 31.577 196.9 31.6723 196.563 31.863C196.226 32.0537 195.958 32.3323 195.76 32.699C195.569 33.0583 195.474 33.4873 195.474 33.986C195.474 34.4773 195.569 34.91 195.76 35.284C195.958 35.6507 196.226 35.933 196.563 36.131C196.9 36.3217 197.282 36.417 197.707 36.417C198.118 36.417 198.492 36.318 198.829 36.12C199.174 35.922 199.445 35.6397 199.643 35.273C199.841 34.9063 199.94 34.481 199.94 33.997ZM203.227 32.325C203.425 31.907 203.729 31.566 204.14 31.302C204.558 31.038 205.049 30.906 205.614 30.906C206.164 30.906 206.655 31.0343 207.088 31.291C207.521 31.5403 207.858 31.8997 208.1 32.369C208.349 32.831 208.474 33.37 208.474 33.986C208.474 34.602 208.349 35.1447 208.1 35.614C207.858 36.0833 207.517 36.4463 207.077 36.703C206.644 36.9597 206.157 37.088 205.614 37.088C205.042 37.088 204.547 36.9597 204.129 36.703C203.718 36.439 203.418 36.098 203.227 35.68V37H202.468V28.86H203.227V32.325ZM207.693 33.986C207.693 33.4873 207.594 33.0583 207.396 32.699C207.205 32.3323 206.941 32.0537 206.604 31.863C206.267 31.6723 205.885 31.577 205.46 31.577C205.049 31.577 204.672 31.676 204.327 31.874C203.99 32.072 203.722 32.3543 203.524 32.721C203.326 33.0877 203.227 33.513 203.227 33.997C203.227 34.481 203.326 34.9063 203.524 35.273C203.722 35.6397 203.99 35.922 204.327 36.12C204.672 36.318 205.049 36.417 205.46 36.417C205.885 36.417 206.267 36.3217 206.604 36.131C206.941 35.933 207.205 35.6507 207.396 35.284C207.594 34.91 207.693 34.4773 207.693 33.986ZM210.892 31.643V35.372C210.892 35.7387 210.961 35.9917 211.101 36.131C211.24 36.2703 211.486 36.34 211.838 36.34H212.542V37H211.717C211.174 37 210.771 36.8753 210.507 36.626C210.243 36.3693 210.111 35.9513 210.111 35.372V31.643H209.275V30.994H210.111V29.487H210.892V30.994H212.542V31.643H210.892ZM219.015 30.994V37H218.245V35.944C218.069 36.318 217.797 36.604 217.431 36.802C217.064 37 216.653 37.099 216.199 37.099C215.48 37.099 214.893 36.879 214.439 36.439C213.984 35.9917 213.757 35.3463 213.757 34.503V30.994H214.516V34.415C214.516 35.0677 214.677 35.5663 215 35.911C215.33 36.2557 215.777 36.428 216.342 36.428C216.921 36.428 217.383 36.2447 217.728 35.878C218.072 35.5113 218.245 34.9723 218.245 34.261V30.994H219.015ZM221.477 35.724L220.333 38.606H219.805L220.619 35.724H221.477ZM225.528 32.985C225.528 31.7237 225.722 30.7447 226.111 30.048C226.499 29.3513 227.196 29.003 228.201 29.003C229.205 29.003 229.902 29.3513 230.291 30.048C230.679 30.7447 230.873 31.7237 230.873 32.985C230.873 34.2683 230.679 35.262 230.291 35.966C229.902 36.67 229.205 37.022 228.201 37.022C227.189 37.022 226.488 36.67 226.1 35.966C225.718 35.262 225.528 34.2683 225.528 32.985ZM230.115 32.985C230.115 32.303 230.067 31.7273 229.972 31.258C229.876 30.7887 229.689 30.411 229.411 30.125C229.132 29.839 228.729 29.696 228.201 29.696C227.673 29.696 227.269 29.839 226.991 30.125C226.712 30.411 226.525 30.7887 226.429 31.258C226.334 31.7273 226.287 32.303 226.287 32.985C226.287 33.689 226.334 34.2793 226.429 34.756C226.525 35.2253 226.712 35.603 226.991 35.889C227.269 36.175 227.673 36.318 228.201 36.318C228.729 36.318 229.132 36.175 229.411 35.889C229.689 35.603 229.876 35.2253 229.972 34.756C230.067 34.2793 230.115 33.689 230.115 32.985ZM231.932 29.806V29.113H233.802V37H233.021V29.806H231.932ZM239.412 32.6V33.249H235.133V32.6H239.412ZM241.222 32.985C241.222 31.7237 241.416 30.7447 241.805 30.048C242.194 29.3513 242.89 29.003 243.895 29.003C244.9 29.003 245.596 29.3513 245.985 30.048C246.374 30.7447 246.568 31.7237 246.568 32.985C246.568 34.2683 246.374 35.262 245.985 35.966C245.596 36.67 244.9 37.022 243.895 37.022C242.883 37.022 242.183 36.67 241.794 35.966C241.413 35.262 241.222 34.2683 241.222 32.985ZM245.809 32.985C245.809 32.303 245.761 31.7273 245.666 31.258C245.571 30.7887 245.384 30.411 245.105 30.125C244.826 29.839 244.423 29.696 243.895 29.696C243.367 29.696 242.964 29.839 242.685 30.125C242.406 30.411 242.219 30.7887 242.124 31.258C242.029 31.7273 241.981 32.303 241.981 32.985C241.981 33.689 242.029 34.2793 242.124 34.756C242.219 35.2253 242.406 35.603 242.685 35.889C242.964 36.175 243.367 36.318 243.895 36.318C244.423 36.318 244.826 36.175 245.105 35.889C245.384 35.603 245.571 35.2253 245.666 34.756C245.761 34.2793 245.809 33.689 245.809 32.985ZM249.529 32.908C249.074 32.7613 248.726 32.5303 248.484 32.215C248.249 31.8997 248.132 31.5183 248.132 31.071C248.132 30.675 248.231 30.323 248.429 30.015C248.634 29.6997 248.931 29.454 249.32 29.278C249.709 29.0947 250.174 29.003 250.717 29.003C251.26 29.003 251.725 29.0947 252.114 29.278C252.503 29.454 252.796 29.6997 252.994 30.015C253.199 30.323 253.302 30.675 253.302 31.071C253.302 31.511 253.181 31.8923 252.939 32.215C252.704 32.5377 252.36 32.7687 251.905 32.908C252.404 33.0327 252.796 33.271 253.082 33.623C253.368 33.975 253.511 34.404 253.511 34.91C253.511 35.3793 253.394 35.79 253.159 36.142C252.932 36.4867 252.605 36.7543 252.18 36.945C251.762 37.1357 251.274 37.231 250.717 37.231C250.16 37.231 249.668 37.1357 249.243 36.945C248.825 36.7543 248.499 36.4867 248.264 36.142C248.037 35.79 247.923 35.3793 247.923 34.91C247.923 34.404 248.066 33.975 248.352 33.623C248.638 33.271 249.03 33.0327 249.529 32.908ZM252.554 31.159C252.554 30.675 252.389 30.301 252.059 30.037C251.729 29.773 251.282 29.641 250.717 29.641C250.152 29.641 249.705 29.773 249.375 30.037C249.045 30.2937 248.88 30.6677 248.88 31.159C248.88 31.6137 249.049 31.9767 249.386 32.248C249.723 32.5193 250.167 32.655 250.717 32.655C251.267 32.655 251.711 32.5193 252.048 32.248C252.385 31.9767 252.554 31.6137 252.554 31.159ZM250.717 33.249C250.116 33.249 249.624 33.3847 249.243 33.656C248.862 33.9273 248.671 34.338 248.671 34.888C248.671 35.416 248.854 35.8303 249.221 36.131C249.588 36.4317 250.086 36.582 250.717 36.582C251.34 36.582 251.835 36.4317 252.202 36.131C252.569 35.823 252.752 35.4087 252.752 34.888C252.752 34.3453 252.561 33.9383 252.18 33.667C251.806 33.3883 251.318 33.249 250.717 33.249ZM258.758 32.6V33.249H254.479V32.6H258.758ZM260.415 36.395C261.764 35.383 262.805 34.4773 263.539 33.678C264.279 32.8713 264.65 32.083 264.65 31.313C264.65 30.807 264.521 30.4037 264.265 30.103C264.015 29.795 263.605 29.641 263.033 29.641C262.475 29.641 262.043 29.817 261.735 30.169C261.434 30.5137 261.265 30.9757 261.229 31.555H260.481C260.525 30.741 260.774 30.1103 261.229 29.663C261.691 29.2083 262.292 28.981 263.033 28.981C263.744 28.981 264.32 29.1827 264.76 29.586C265.2 29.982 265.42 30.5467 265.42 31.28C265.42 32.1673 265.049 33.029 264.309 33.865C263.575 34.6937 262.67 35.504 261.592 36.296H265.662V36.945H260.415V36.395ZM266.863 32.985C266.863 31.7237 267.058 30.7447 267.446 30.048C267.835 29.3513 268.532 29.003 269.536 29.003C270.541 29.003 271.238 29.3513 271.626 30.048C272.015 30.7447 272.209 31.7237 272.209 32.985C272.209 34.2683 272.015 35.262 271.626 35.966C271.238 36.67 270.541 37.022 269.536 37.022C268.524 37.022 267.824 36.67 267.435 35.966C267.054 35.262 266.863 34.2683 266.863 32.985ZM271.45 32.985C271.45 32.303 271.403 31.7273 271.307 31.258C271.212 30.7887 271.025 30.411 270.746 30.125C270.468 29.839 270.064 29.696 269.536 29.696C269.008 29.696 268.605 29.839 268.326 30.125C268.048 30.411 267.861 30.7887 267.765 31.258C267.67 31.7273 267.622 32.303 267.622 32.985C267.622 33.689 267.67 34.2793 267.765 34.756C267.861 35.2253 268.048 35.603 268.326 35.889C268.605 36.175 269.008 36.318 269.536 36.318C270.064 36.318 270.468 36.175 270.746 35.889C271.025 35.603 271.212 35.2253 271.307 34.756C271.403 34.2793 271.45 33.689 271.45 32.985ZM273.488 36.395C274.837 35.383 275.878 34.4773 276.612 33.678C277.352 32.8713 277.723 32.083 277.723 31.313C277.723 30.807 277.594 30.4037 277.338 30.103C277.088 29.795 276.678 29.641 276.106 29.641C275.548 29.641 275.116 29.817 274.808 30.169C274.507 30.5137 274.338 30.9757 274.302 31.555H273.554C273.598 30.741 273.847 30.1103 274.302 29.663C274.764 29.2083 275.365 28.981 276.106 28.981C276.817 28.981 277.393 29.1827 277.833 29.586C278.273 29.982 278.493 30.5467 278.493 31.28C278.493 32.1673 278.122 33.029 277.382 33.865C276.648 34.6937 275.743 35.504 274.665 36.296H278.735V36.945H273.488V36.395ZM279.937 32.985C279.937 31.7237 280.131 30.7447 280.52 30.048C280.908 29.3513 281.605 29.003 282.61 29.003C283.614 29.003 284.311 29.3513 284.7 30.048C285.088 30.7447 285.283 31.7237 285.283 32.985C285.283 34.2683 285.088 35.262 284.7 35.966C284.311 36.67 283.614 37.022 282.61 37.022C281.598 37.022 280.897 36.67 280.509 35.966C280.127 35.262 279.937 34.2683 279.937 32.985ZM284.524 32.985C284.524 32.303 284.476 31.7273 284.381 31.258C284.285 30.7887 284.098 30.411 283.82 30.125C283.541 29.839 283.138 29.696 282.61 29.696C282.082 29.696 281.678 29.839 281.4 30.125C281.121 30.411 280.934 30.7887 280.839 31.258C280.743 31.7273 280.696 32.303 280.696 32.985C280.696 33.689 280.743 34.2793 280.839 34.756C280.934 35.2253 281.121 35.603 281.4 35.889C281.678 36.175 282.082 36.318 282.61 36.318C283.138 36.318 283.541 36.175 283.82 35.889C284.098 35.603 284.285 35.2253 284.381 34.756C284.476 34.2793 284.524 33.689 284.524 32.985Z" fill="black"/>
<g clip-path="url(#clip0)">
<path d="M344.938 48.7291C344.999 49.0372 344.923 49.3568 344.729 49.6041C344.531 49.8509 344.233 49.9961 343.917 49.9999H298.083C297.767 49.9961 297.469 49.8509 297.271 49.6041C297.077 49.3568 297.001 49.0372 297.063 48.7291L302.667 22.9167L303.125 20.8334L307.479 0.812514C307.582 0.333023 308.01 -0.00701574 308.5 1.54977e-05H333.5C333.99 -0.00701574 334.418 0.333023 334.521 0.812514L338.875 20.8333L339.333 22.9166L344.938 48.7291Z" fill="#CFD4D9"/>
<path d="M338.875 20.8334H330.146C328.354 13.9792 324.208 12.5001 321 12.5001C316.417 12.5001 313.208 15.4793 311.854 20.8334H303.125L302.667 22.9167H311.542C311.53 24.63 312.128 26.2916 313.229 27.6042C315.16 29.8991 318.001 31.2317 321 31.25C324.032 31.2136 326.899 29.8601 328.854 27.5417C329.934 26.2452 330.511 24.6035 330.479 22.9167H339.333L338.875 20.8334ZM321 14.5834C324.479 14.5834 326.75 16.6459 327.979 20.8334H314C315.167 16.7084 317.5 14.5834 321 14.5834ZM327.229 26.2293C324.399 29.6667 319.318 30.1586 315.88 27.3281C315.5 27.0153 315.15 26.6684 314.833 26.2918C314.048 25.344 313.627 24.1472 313.646 22.9168H328.375C328.413 24.1243 328.005 25.3036 327.229 26.2293Z" fill="#FAFAFA"/>
<path d="M332.688 50.0001H330.563L328.479 39.5834H313.521L311.438 50.0001H309.313L311.646 38.3334C311.745 37.8483 312.172 37.5 312.667 37.5001H329.333C329.828 37.5 330.255 37.8483 330.354 38.3334L332.688 50.0001Z" fill="#FAFAFA"/>
<path d="M327.229 7.12599C327.291 7.42443 327.206 7.73459 327 7.95929C326.811 8.20324 326.517 8.34259 326.208 8.33429H315.792C315.483 8.34259 315.189 8.20324 315 7.95929C314.794 7.73449 314.709 7.42443 314.771 7.12599L315.958 0.00100708H318.062L317.021 6.251H324.979L323.937 0.00100708H326.042L327.229 7.12599Z" fill="#FAFAFA"/>
</g>
<path d="M295.053 65H294.283L290.026 58.532V65H289.256V57.311H290.026L294.283 63.768V57.311H295.053V65ZM302.231 61.689C302.231 61.953 302.224 62.1547 302.209 62.294H297.226C297.248 62.7487 297.358 63.1373 297.556 63.46C297.754 63.7827 298.014 64.0283 298.337 64.197C298.66 64.3583 299.012 64.439 299.393 64.439C299.892 64.439 300.31 64.318 300.647 64.076C300.992 63.834 301.219 63.5077 301.329 63.097H302.143C301.996 63.6837 301.681 64.164 301.197 64.538C300.72 64.9047 300.119 65.088 299.393 65.088C298.828 65.088 298.322 64.9633 297.875 64.714C297.428 64.4573 297.076 64.098 296.819 63.636C296.57 63.1667 296.445 62.6203 296.445 61.997C296.445 61.3737 296.57 60.8273 296.819 60.358C297.068 59.8887 297.417 59.5293 297.864 59.28C298.311 59.0307 298.821 58.906 299.393 58.906C299.965 58.906 300.464 59.0307 300.889 59.28C301.322 59.5293 301.652 59.8667 301.879 60.292C302.114 60.71 302.231 61.1757 302.231 61.689ZM301.45 61.667C301.457 61.2197 301.366 60.8383 301.175 60.523C300.992 60.2077 300.739 59.9693 300.416 59.808C300.093 59.6467 299.741 59.566 299.36 59.566C298.788 59.566 298.3 59.7493 297.897 60.116C297.494 60.4827 297.27 60.9997 297.226 61.667H301.45ZM306.786 65L305.235 62.58L303.739 65H302.925L304.861 61.997L302.947 58.994H303.816L305.345 61.381L306.83 58.994H307.633L305.719 61.964L307.655 65H306.786ZM309.7 59.643V63.372C309.7 63.7387 309.77 63.9917 309.909 64.131C310.049 64.2703 310.294 64.34 310.646 64.34H311.35V65H310.525C309.983 65 309.579 64.8753 309.315 64.626C309.051 64.3693 308.919 63.9513 308.919 63.372V59.643H308.083V58.994H308.919V57.487H309.7V58.994H311.35V59.643H309.7ZM319.192 57.311V63.13C319.192 63.7167 319.012 64.1897 318.653 64.549C318.293 64.901 317.813 65.077 317.212 65.077C316.588 65.077 316.09 64.89 315.716 64.516C315.349 64.1347 315.166 63.6213 315.166 62.976H315.947C315.954 63.394 316.057 63.735 316.255 63.999C316.46 64.263 316.779 64.395 317.212 64.395C317.622 64.395 317.927 64.274 318.125 64.032C318.323 63.79 318.422 63.4893 318.422 63.13V57.311H319.192ZM320.776 61.986C320.776 61.37 320.897 60.831 321.139 60.369C321.388 59.8997 321.729 59.5403 322.162 59.291C322.602 59.0343 323.097 58.906 323.647 58.906C324.219 58.906 324.71 59.038 325.121 59.302C325.539 59.566 325.84 59.9033 326.023 60.314V58.994H326.793V65H326.023V63.669C325.832 64.0797 325.528 64.4207 325.11 64.692C324.699 64.956 324.208 65.088 323.636 65.088C323.093 65.088 322.602 64.9597 322.162 64.703C321.729 64.4463 321.388 64.0833 321.139 63.614C320.897 63.1447 320.776 62.602 320.776 61.986ZM326.023 61.997C326.023 61.513 325.924 61.0877 325.726 60.721C325.528 60.3543 325.257 60.072 324.912 59.874C324.575 59.676 324.201 59.577 323.79 59.577C323.365 59.577 322.983 59.6723 322.646 59.863C322.309 60.0537 322.041 60.3323 321.843 60.699C321.652 61.0583 321.557 61.4873 321.557 61.986C321.557 62.4773 321.652 62.91 321.843 63.284C322.041 63.6507 322.309 63.933 322.646 64.131C322.983 64.3217 323.365 64.417 323.79 64.417C324.201 64.417 324.575 64.318 324.912 64.12C325.257 63.922 325.528 63.6397 325.726 63.273C325.924 62.9063 326.023 62.481 326.023 61.997ZM328.199 61.986C328.199 61.37 328.324 60.831 328.573 60.369C328.822 59.8997 329.163 59.5403 329.596 59.291C330.036 59.0343 330.531 58.906 331.081 58.906C331.609 58.906 332.086 59.0343 332.511 59.291C332.936 59.5477 333.248 59.8813 333.446 60.292V56.86H334.216V65H333.446V63.658C333.263 64.076 332.962 64.4207 332.544 64.692C332.126 64.956 331.635 65.088 331.07 65.088C330.52 65.088 330.025 64.9597 329.585 64.703C329.152 64.4463 328.811 64.0833 328.562 63.614C328.32 63.1447 328.199 62.602 328.199 61.986ZM333.446 61.997C333.446 61.513 333.347 61.0877 333.149 60.721C332.951 60.3543 332.68 60.072 332.335 59.874C331.998 59.676 331.624 59.577 331.213 59.577C330.788 59.577 330.406 59.6723 330.069 59.863C329.732 60.0537 329.464 60.3323 329.266 60.699C329.075 61.0583 328.98 61.4873 328.98 61.986C328.98 62.4773 329.075 62.91 329.266 63.284C329.464 63.6507 329.732 63.933 330.069 64.131C330.406 64.3217 330.788 64.417 331.213 64.417C331.624 64.417 331.998 64.318 332.335 64.12C332.68 63.922 332.951 63.6397 333.149 63.273C333.347 62.9063 333.446 62.481 333.446 61.997ZM343.894 58.994L342.013 65H341.243L339.582 59.962L337.921 65H337.14L335.259 58.994H336.04L337.536 64.219L339.219 58.994H339.989L341.65 64.23L343.135 58.994H343.894ZM344.591 61.986C344.591 61.37 344.712 60.831 344.954 60.369C345.204 59.8997 345.545 59.5403 345.977 59.291C346.417 59.0343 346.912 58.906 347.462 58.906C348.034 58.906 348.526 59.038 348.936 59.302C349.354 59.566 349.655 59.9033 349.838 60.314V58.994H350.608V65H349.838V63.669C349.648 64.0797 349.343 64.4207 348.925 64.692C348.515 64.956 348.023 65.088 347.451 65.088C346.909 65.088 346.417 64.9597 345.977 64.703C345.545 64.4463 345.204 64.0833 344.954 63.614C344.712 63.1447 344.591 62.602 344.591 61.986ZM349.838 61.997C349.838 61.513 349.739 61.0877 349.541 60.721C349.343 60.3543 349.072 60.072 348.727 59.874C348.39 59.676 348.016 59.577 347.605 59.577C347.18 59.577 346.799 59.6723 346.461 59.863C346.124 60.0537 345.856 60.3323 345.658 60.699C345.468 61.0583 345.372 61.4873 345.372 61.986C345.372 62.4773 345.468 62.91 345.658 63.284C345.856 63.6507 346.124 63.933 346.461 64.131C346.799 64.3217 347.18 64.417 347.605 64.417C348.016 64.417 348.39 64.318 348.727 64.12C349.072 63.922 349.343 63.6397 349.541 63.273C349.739 62.9063 349.838 62.481 349.838 61.997ZM353.136 56.86V65H352.366V56.86H353.136Z" fill="black"/>
<defs>
<clipPath id="clip0">
<rect width="50" height="50" fill="white" transform="translate(296)"/>
</clipPath>
</defs>
</svg>
